<svg xmlns="http://www.w3.org/2000/svg" width="56" height="56"> <g fill="none" fill-rule="evenodd"> <path fill="#66AFEB" d="M21 44a3 3 0 0 0 3-3c0-1.657-3-5-3-5s-3 3.343-3 5a3 3 0 0 0 3 3zm12 0a3 3 0 0 0 3-3c0-1.657-3-5-3-5s-3 3.343-3 5a3 3 0 0 0 3 3zM21 28a3 3 0 0 0 3-3c0-1.657-3-5-3-5s-3 3.343-3 5a3 3 0 0 0 3 3zm12 0a3 3 0 0 0 3-3c0-1.657-3-5-3-5s-3 3.343-3 5a3 3 0 0 0 3 3zM9 44a3 3 0 0 0 3-3c0-1.657-3-5-3-5s-3 3.343-3 5a3 3 0 0 0 3 3zm0-16a3 3 0 0 0 3-3c0-1.657-3-5-3-5s-3 3.343-3 5a3 3 0 0 0 3 3zm18 8a3 3 0 0 0 3-3c0-1.657-3-5-3-5s-3 3.343-3 5a3 3 0 0 0 3 3zm0-16a3 3 0 0 0 3-3c0-1.657-3-5-3-5s-3 3.343-3 5a3 3 0 0 0 3 3zM15 36a3 3 0 0 0 3-3c0-1.657-3-5-3-5s-3 3.343-3 5a3 3 0 0 0 3 3zm0-16a3 3 0 0 0 3-3c0-1.657-3-5-3-5s-3 3.343-3 5a3 3 0 0 0 3 3z"/> <path fill="#F8C834" d="M44 5h6a1 1 0 0 1 1 1v44a1 1 0 0 1-1 1h-6a1 1 0 0 1-1-1V6a1 1 0 0 1 1-1z"/> <path fill="#000" d="M43 11h2.5a.5.5 0 1 1 0 1H43v-1zm0 15h2.5a.5.5 0 1 1 0 1H43v-1zm0 15h2.5a.5.5 0 1 1 0 1H43v-1zm0-33h2.5a.5.5 0 1 1 0 1H43V8zm0 15h2.5a.5.5 0 1 1 0 1H43v-1zm0 15h2.5a.5.5 0 1 1 0 1H43v-1zm0-24h2.5a.5.5 0 1 1 0 1H43v-1zm0 15h2.5a.5.5 0 1 1 0 1H43v-1zm0 15h2.5a.5.5 0 1 1 0 1H43v-1zm0-27h2.5a.5.5 0 1 1 0 1H43v-1zm0 15h2.5a.5.5 0 1 1 0 1H43v-1zm0 15h2.5a.5.5 0 1 1 0 1H43v-1zm0-27h4.5a.5.5 0 1 1 0 1H43v-1zm0 15h4.5a.5.5 0 1 1 0 1H43v-1z" opacity=".2"/> </g> </svg>