<?xml version="1.0" encoding="utf-8"?>
<!-- Generator: Adobe Illustrator 24.1.3, SVG Export Plug-In . SVG Version: 6.00 Build 0)  -->
<svg version="1.1" id="Layer_2" xmlns="http://www.w3.org/2000/svg" xmlns:xlink="http://www.w3.org/1999/xlink" x="0px" y="0px"
	 viewBox="0 0 1024 1024" style="enable-background:new 0 0 1024 1024;" xml:space="preserve">
<g>
	<path d="M768.31,949c0-33.94-77.08-62.58-182.78-71.83c-21.74,32.95-37.91,56.45-44.27,65.59c-6.66,9.58-17.59,15.3-29.26,15.3
		c-11.67,0-22.6-5.72-29.26-15.3c-6.35-9.14-22.53-32.64-44.27-65.59c-105.7,9.25-182.78,37.89-182.78,71.83
		c0,41.42,114.75,75,256.31,75C653.55,1024,768.31,990.42,768.31,949z"/>
	<path d="M479.77,874.66c19.75,29.79,32.23,47.77,32.23,47.77s12.48-17.98,32.23-47.77c78.97-119.08,276.15-430.05,276.15-566.28
		C820.38,138.07,682.31,0,512,0S203.62,138.07,203.62,308.38C203.62,444.61,400.8,755.57,479.77,874.66z M512,123.36
		c99.43,0,180.04,80.6,180.04,180.04S611.43,483.43,512,483.43s-180.04-80.6-180.04-180.04S412.57,123.36,512,123.36z"/>
</g>
</svg>
