<?xml version="1.0" encoding="utf-8"?>
<!-- Generator: Adobe Illustrator 24.1.3, SVG Export Plug-In . SVG Version: 6.00 Build 0)  -->
<svg version="1.1" id="Layer_2" xmlns="http://www.w3.org/2000/svg" xmlns:xlink="http://www.w3.org/1999/xlink" x="0px" y="0px"
	 viewBox="0 0 1024 1024" style="enable-background:new 0 0 1024 1024;" xml:space="preserve">
<g>
	<path d="M635.73,522.29H388.28v-61.04H41.15v345.5c0,74.51,60.4,134.91,134.91,134.91h671.87c74.51,0,134.91-60.4,134.91-134.91
		v-345.5H635.73V522.29z M747.93,658h-77.88v86.92h77.88c-15.26,27.28-44.39,45.75-77.88,45.75c-35.29,0-65.7-20.54-80.17-50.27
		H434.11c-14.47,29.73-44.88,50.27-80.17,50.27c-33.48,0-62.61-18.47-77.87-45.75h77.87V658h-77.87
		c15.26-27.28,44.39-45.75,77.87-45.75c34.62,0,64.57,19.76,79.36,48.58h157.4c14.79-28.82,44.74-48.58,79.36-48.58
		C703.54,612.24,732.67,630.71,747.93,658z"/>
	<path d="M887.1,250.71H711.6v-86.83c0-44.97-36.59-81.54-81.56-81.54H393.96c-44.97,0-81.56,36.58-81.56,81.54v86.83H136.9
		C61.29,250.71,0,312,0,387.61v25.79h388.28v-51.22h247.45v51.22H1024v-25.79C1024,312,962.71,250.71,887.1,250.71z M374.63,163.88
		c0-10.66,8.67-19.33,19.33-19.33h236.08c10.66,0,19.33,8.67,19.33,19.33v86.83H374.63V163.88z"/>
</g>
</svg>
