<svg xmlns="http://www.w3.org/2000/svg" viewBox="0 0 24 24" id="icon"><path fill="none" d="M0 0h24v24H0z"></path><path d="M 12.794922,4.5644531 C 10.990814,4.5760817 9.2734556,5.4155387 8.3046875,7.3320312 5.5004011,5.9991742 3.000001,8.000005 3.5,10.5 c -4.499991,0.999998 -3.4999910000045,8 1,8 H 20 c 4.99999,0 4.49999,-7.5 -0.5,-7.5 0,-3.8437424 -3.489058,-6.456276 -6.705078,-6.4355469 z M 9,10 c 0.5522841,0 1,0.447716 1,1 0,0.552284 -0.4477159,1 -1,1 -0.5522841,0 -1,-0.447716 -1,-1 0,-0.552284 0.4477159,-1 1,-1 z m 6,0 c 0.552285,0 1,0.447715 1,1 0,0.552285 -0.447715,1 -1,1 -0.552285,0 -1,-0.447715 -1,-1 0,-0.552285 0.447715,-1 1,-1 z m -3,3.5 c 2,0 3.5,0.5 4.5,1.5 1,1 0.5,2 -0.5,1 -1,-1 -2.5,-1.5 -4,-1.5 -1.5,0 -3,0.5 -4,1.5 -1,1 -1.5,0 -0.5,-1 1,-1 2.5,-1.5 4.5,-1.5 z"></path></svg>