<svg xmlns="http://www.w3.org/2000/svg" viewBox="0 0 24 24" id="icon"><path fill="none" d="M0 0h24v24H0z"></path><path d="M 12.111874,0.83188711 A 10.993696,10.993696 0 0 0 1.1181773,11.825581 10.993696,10.993696 0 0 0 12.111874,22.819278 10.993696,10.993696 0 0 0 23.105568,11.825581 10.993696,10.993696 0 0 0 12.111874,0.83188711 Z m 0.275915,0.98742049 c 1.352869,0.033312 2.672091,0.3459184 3.881175,0.8937283 L 15.264067,4.453347 C 15.229447,4.438588 15.194807,4.42405 15.160123,4.409817 v 0.00194 C 14.52274,4.1520063 13.850925,3.9726976 13.161272,3.8833492 v -0.00268 c -0.32956,-0.041979 -0.658653,-0.062508 -0.985666,-0.062563 -0.0046,-4.99e-5 -0.0091,0 -0.01375,0 -0.336006,3.867e-4 -0.669767,0.022688 -0.999427,0.065387 V 21.782025 C 10.480169,21.711266 9.8104983,21.570032 9.16357,21.364102 v -6.54039 H 4.7497923 c 0.090245,0.223022 0.1904839,0.441612 0.3002211,0.65519 h -9.97e-5 c 0.5419856,1.054893 1.317243,1.986817 2.2800398,2.7169 L 6.3237909,19.938551 C 3.8577098,18.171317 2.1678838,15.291517 2.1675829,11.826311 v -1.01e-4 -0.0012 C 2.1677832,8.2544137 4.07288,4.9550405 7.1652066,3.1699145 8.8533673,2.1953814 10.648393,1.776515 12.387796,1.8193242 Z M 18,3.7124595 c 2.225073,1.5945378 3.8182,4.0948339 4.108486,7.1135965 h -6.948363 v 1.998856 h 6.946018 c -0.285784,2.848513 -1.782711,5.441172 -4.106627,7.112913 l -1.005186,-1.741092 c 1.1306,-0.85331 2.043032,-2.005501 2.592068,-3.372966 h -4.426273 v 6.54449 c -0.342799,0.109637 -0.687269,0.19926 -1.032221,0.269569 v 10e-5 c -0.322113,0.06566 -0.644717,0.114503 -0.96663,0.147083 V 5.9042715 c 0.67551,0.115832 1.350327,0.3535657 1.998851,0.7279993 v 2.1949346 h 4.413779 C 19.397805,8.3920042 19.183775,7.9735745 18.934814,7.5766504 H 18.9483 C 18.427498,6.7491264 17.7611,6.0328053 16.994341,5.4541385 Z M 9.1635626,4.4119629 C 6.3229944,5.569448 4.1666303,8.3237554 4.1664301,11.825095 c 0,0.165106 0.00508,0.329525 0.01511,0.492977 0.01043,0.170003 0.026352,0.339036 0.047434,0.50684 H 9.163546 Z"></path></svg>