<svg xmlns="http://www.w3.org/2000/svg" viewBox="0 0 24 24" id="icon"><path fill="none" d="M0 0h24v24H0z"></path><path d="m 10.988772,0.79137601 c -0.11902,4.3802e-4 -0.240686,0.0273976 -0.463997,0.0796562 C 10.237631,0.93822878 9.94337,1.0560709 9.7560932,1.1796996 9.3938986,1.4187976 8.7356356,2.0902612 8.4915519,2.4681375 8.3356654,2.7094817 8.316548,2.7900939 8.3163094,3.220888 8.3160413,3.7527362 8.423045,4.0812411 8.7185726,4.4495837 c 0.092267,0.1150055 0.1692687,0.2271438 0.1692687,0.2489254 0,0.021782 -0.1963737,0.1966102 -0.4361169,0.3883238 C 7.4521905,5.8861233 6.7535321,6.6650711 6.2034302,7.596001 5.8775287,8.1475162 5.4949774,9.053943 5.4228001,9.4420319 5.4012662,9.5577696 5.3603793,9.6952859 5.3331865,9.7487077 5.2012362,10.007923 5.0926765,12.255361 5.086253,14.868605 c -0.00104,0.424933 0.1055407,1.042161 0.2588822,1.50351 0.06324,0.190273 0.1155011,0.39986 0.1155011,0.46798 0,0.12317 -0.00179,0.124457 -0.2409596,-0.01 C 4.8587684,16.627296 4.0206095,15.77532 3.6026578,15.18723 3.1840656,14.598244 2.7583119,13.793829 2.5830593,13.259552 2.2691932,12.302718 2.2425287,12.114164 2.2425287,10.794195 c 0,-0.771783 0.027447,-1.3565035 0.0697,-1.5035099 C 2.5818133,8.3527362 2.6741553,8.0870055 2.8996925,7.605958 3.0395671,7.3076131 3.2870217,6.861516 3.4493192,6.6142392 3.8323896,6.0305949 4.828991,5.0298886 5.3889463,4.6666468 5.6313293,4.5094135 5.81959,4.3704233 5.8071407,4.3579793 5.7545845,4.305423 5.1361471,4.5143977 4.6700499,4.7423201 3.9587188,5.0901609 3.4893059,5.4146984 2.9275714,5.9431362 2.5089599,6.3369364 2.1687016,6.7254299 1.8741192,7.151918 a 11.657918,11.269789 0 0 0 -0.9817612,4.496588 11.657918,11.269789 0 0 0 5.9204413,9.779781 c -0.01994,-0.04433 -0.034935,-0.08455 -0.05775,-0.131432 -0.2065696,-0.424422 -0.2724744,-0.629034 -0.2847708,-0.896131 -0.025377,-0.551318 0.00635,-1.068129 0.061733,-1.005659 0.02785,0.03141 0.2314734,0.482574 0.4520482,1.001677 0.1814111,0.426932 0.4514283,1.012414 0.6750854,1.47762 a 11.657918,11.269789 0 0 0 4.8908869,1.043496 11.657918,11.269789 0 0 0 1.718581,-0.125459 l 0.0021,-1.280472 c 0.0021,-1.487604 0.0042,-1.527138 0.157321,-1.925686 0.327572,-0.853197 0.74927,-1.179773 1.166962,-0.906089 0.212527,0.139253 0.26797,0.26896 0.394298,0.920028 0.133747,0.689286 0.141104,1.156388 0.02787,2.059111 -0.03522,0.280795 -0.06626,0.543039 -0.0936,0.770673 a 11.657918,11.269789 0 0 0 6.549725,-4.890887 c 0.05379,-0.313326 0.105097,-0.636086 0.151307,-0.971804 0.05007,-0.363749 0.104651,-0.729823 0.121474,-0.812493 0.06771,-0.332714 0.208382,-2.295946 0.209098,-2.919397 0.0011,-1.009881 -0.248835,-2.618559 -0.46798,-3.0090104 -0.09345,-0.1665105 -0.116714,-0.049052 -0.153338,0.7587244 -0.03516,0.775445 -0.145262,1.306175 -0.414212,2.013309 -0.448333,1.178784 -1.159944,1.980422 -2.423538,2.726231 -0.751332,0.44346 -1.115008,0.557644 -1.891833,0.59543 -0.824855,0.04012 -1.101899,0.138051 -1.389999,0.497851 -0.441481,0.551343 -0.450259,0.556938 -0.790586,0.51179 -0.169428,-0.02247 -0.4876,-0.115752 -0.70695,-0.209097 -0.559819,-0.238225 -0.673581,-0.255698 -1.332248,-0.187193 -0.709473,0.07379 -0.975348,0.0092 -1.158997,-0.282779 C 12.158091,16.143561 12.012688,15.91484 11.902826,15.74084 11.650879,15.341799 11.360205,15.116542 10.935004,14.994064 10.15217,14.76857 9.3200286,14.196759 8.7743314,13.508477 8.3362792,12.955964 7.9561658,12.116883 7.8025266,11.365727 7.6929707,10.830114 7.6763962,10.601875 7.7029567,9.8622176 7.759212,8.295697 8.1093003,7.0605405 8.764375,6.1084227 9.1056897,5.6123382 9.5987812,5.2600942 9.7461358,5.4074487 9.850286,5.5115995 10.252376,5.4851095 10.496895,5.3576638 10.619584,5.2937187 10.828621,5.1429051 10.960893,5.0231081 11.535164,4.5029976 11.821044,4.3270403 12.557998,4.0373632 13.123516,3.8150728 13.219619,3.4643729 12.948312,2.6055443 12.766141,2.0288756 12.451003,1.4863559 12.129846,1.1936394 11.941232,1.021727 11.787585,0.94926889 11.43883,0.86704929 11.223998,0.81640298 11.107792,0.79093799 10.988772,0.79137601 Z M 19.354657,2.5 c -0.387074,0.3615651 -0.740939,0.9449088 -0.941933,1.5911313 -0.173887,0.5590621 -0.0748,0.795107 0.456031,1.0733663 0.511066,0.2678945 0.925851,0.5948229 1.344197,1.0614179 0.194843,0.217313 0.452228,0.4467465 0.571532,0.5097993 0.354335,0.1872674 0.545953,0.1548821 1.045487,-0.1792263 C 22.151402,6.3415022 22.399869,6.1360223 22.59268,5.927205 A 11.657918,11.269789 0 0 0 19.354657,2.5 Z m -7.529495,6.5815877 c -0.413142,0.01314 -0.626761,0.1299638 -0.971805,0.5038252 -0.835686,0.9054761 -1.1957591,1.8455021 -0.9837536,2.5709011 0.1180493,0.403919 0.5334076,0.901933 0.8324066,0.997693 0.397005,0.127149 0.699829,0.05911 1.101246,-0.246934 0.334324,-0.254894 0.680855,-0.631404 1.200817,-1.304368 0.368131,-0.476457 0.441494,-0.743882 0.334555,-1.228697 -0.194681,-0.8826061 -0.648105,-1.2928492 -1.427836,-1.2924203 -0.0294,1.63e-5 -0.05809,-8.758e-4 -0.08563,0 z m 5.928407,0.7786386 c -0.176032,0.00143 -0.344437,0.032342 -0.481919,0.097576 -0.474183,0.2250147 -0.989729,0.9545817 -0.989728,1.3999557 0,0.313725 0.177403,0.833713 0.547636,1.609054 0.305889,0.640593 0.703976,1.130144 0.963839,1.184886 0.401935,0.08467 1.038171,-0.113106 1.308351,-0.406247 0.286386,-0.310719 0.387389,-0.591397 0.414213,-1.14904 0.02097,-0.435717 -5.5e-4,-0.640221 -0.107535,-1.023581 C 19.259421,11.038905 18.984534,10.443117 18.793082,10.23859 18.567263,9.9973515 18.14084,9.8570507 17.753569,9.8602237 Z m -4.261603,4.6957297 c -0.2832,0.0045 -0.517614,0.03547 -0.637249,0.09757 -0.146567,0.0761 -0.216267,0.15695 -0.229012,0.266848 -0.02322,0.20028 0.0936,0.316192 0.45404,0.450057 0.369101,0.13708 0.702449,0.370267 0.826432,0.579499 0.113281,0.19117 0.230777,0.211314 0.342522,0.05775 0.141973,-0.195104 0.496273,-0.365018 0.892149,-0.428151 0.577316,-0.09207 0.782906,-0.407966 0.430143,-0.659155 -0.307744,-0.219137 -1.355288,-0.375762 -2.079025,-0.364426 z m -0.487893,2.495228 c 0.06932,-0.01255 0.187598,0.01868 0.386331,0.08563 0.2729,0.09193 0.518786,0.121476 0.997694,0.121475 0.515891,0 0.642289,0.01652 0.671102,0.0916 0.04101,0.10687 -0.122891,0.306465 -0.34053,0.416203 -0.201406,0.101562 -0.822948,0.147704 -1.075358,0.07966 -0.395968,-0.106759 -0.728853,-0.390915 -0.728853,-0.62331 0,-0.102933 0.02028,-0.158708 0.08961,-0.17126 z"></path></svg>