<svg xmlns="http://www.w3.org/2000/svg" viewBox="0 0 24 24" id="icon"><path fill="none" d="M0 0h24v24H0z"></path><path d="M 11.928647,1.060191 A 10.918208,10.918208 0 0 0 1.0099276,11.978912 10.918208,10.918208 0 0 0 11.928647,22.895986 10.918208,10.918208 0 0 0 22.847367,11.978912 10.918208,10.918208 0 0 0 11.928647,1.060191 Z m -0.363683,0.8754723 c 0.624056,-0.017218 1.342555,0.028548 1.961585,0.1300044 2.560932,0.4197221 4.987605,1.9373425 6.487053,4.0564651 0.350574,0.4954488 0.85798,1.4139588 1.066365,1.9319637 0.01555,0.038646 0.05235,0.1249053 0.08063,0.1925375 0.0484,0.1156945 0.23445,0.6647478 0.304442,0.8968655 0.01748,0.057968 0.05847,0.2237013 0.09051,0.3686199 0.03203,0.1449195 0.08728,0.3343286 0.123423,0.4212802 0.04009,0.096427 0.07173,0.2810824 0.08228,0.4739404 0.0095,0.173903 0.03509,0.554367 0.05595,0.844206 0.05382,0.747442 0.01413,1.596003 -0.106966,2.282481 -0.0438,0.248317 -0.198942,0.938389 -0.245198,1.089404 -0.08329,0.271952 -0.301182,0.887771 -0.385076,1.089403 -0.0998,0.239877 -0.515206,1.072193 -0.64344,1.288524 -0.172989,0.291836 -0.483152,0.774954 -0.513435,0.801419 -0.01106,0.0097 -0.108936,0.136484 -0.218866,0.281402 -0.254751,0.33583 -0.651022,0.729454 -0.689519,0.684581 -0.01593,-0.01856 -0.05723,-0.129263 -0.09215,-0.245199 -0.08249,-0.273767 -0.225613,-0.556462 -0.483814,-0.956108 -0.241995,-0.374565 -0.243207,-0.366648 0.06583,-0.625337 0.265898,-0.222583 0.516478,-0.488309 0.572677,-0.607235 0.04433,-0.09381 0.05593,-0.122746 0.14317,-0.35381 0.06764,-0.179142 0.188175,-0.302193 0.393304,-0.403178 0.272175,-0.133993 0.423047,-0.371264 0.441027,-0.689517 0.01544,-0.273257 -0.02928,-0.395921 -0.22545,-0.613818 l -0.125068,-0.138232 0.02963,-0.335708 c 0.04946,-0.570416 0.02616,-0.891174 -0.09546,-1.301689 -0.141874,-0.47885 -0.172286,-0.59019 -0.205702,-0.738885 -0.07623,-0.339196 -0.30784,-0.768793 -0.56445,-1.051555 -0.07821,-0.08618 -0.141524,-0.171129 -0.141524,-0.187601 0,-0.05961 -0.724826,-0.7738031 -0.913321,-0.9001567 C 17.707129,9.5494923 17.548191,9.4700184 17.46124,9.4446489 17.180871,9.3628459 16.925146,9.2749186 16.56602,9.1385629 l -0.352163,-0.1332955 -0.702682,-0.00164 c -0.72726,-0.00147 -0.96974,0.032306 -1.47448,0.2007661 -0.188283,0.062842 -0.648813,0.2711088 -0.684581,0.3093778 -0.0097,0.010336 -0.121932,0.09168 -0.248489,0.1810181 -0.302354,0.2134362 -0.77432,0.7576166 -1.072947,1.2375096 -0.05628,0.09045 -0.173363,0.262009 -0.260008,0.381785 l -0.15798,0.218869 0.0099,0.348872 c 0.0051,0.192514 -0.0048,0.390362 -0.02304,0.439382 -0.170828,0.461038 -0.233854,0.738116 -0.233678,1.038389 1.71e-4,0.27426 0.0126,0.336809 0.09051,0.47394 0.152279,0.268058 0.188104,0.325598 0.287985,0.469003 0.133605,0.191821 0.123874,0.290239 -0.04278,0.460775 -0.08847,0.09053 -0.153577,0.201068 -0.181018,0.30444 -0.03826,0.144109 -0.03473,0.189156 0.0362,0.40976 0.08394,0.261057 0.146767,0.340424 0.363683,0.460777 0.138987,0.07711 0.44761,0.103323 0.44761,0.03785 0,-0.01994 -0.02367,-0.09355 -0.05266,-0.162917 -0.05748,-0.137564 -0.06758,-0.222587 -0.02633,-0.222159 0.01449,1.52e-4 0.04327,0.03566 0.06418,0.07899 0.280387,0.580787 0.732762,1.147627 1.158519,1.45144 0.119304,0.08513 0.225781,0.15469 0.23697,0.15469 0.01119,0 0.09661,0.04437 0.189248,0.09874 0.317229,0.186195 1.146874,0.498624 1.324727,0.498624 0.04973,0 0.09051,0.01524 0.09051,0.03456 0,0.09586 -0.507635,0.0034 -1.168394,-0.213931 -0.169514,-0.05575 -0.329962,-0.102029 -0.3571,-0.102029 -0.07271,0 -0.176406,0.146917 -0.264946,0.376848 -0.04298,0.111616 -0.08983,0.234526 -0.10532,0.273173 -0.251948,0.628621 -0.41099,1.479179 -0.493687,2.652748 -0.02247,0.318823 -0.05281,0.593456 -0.06912,0.610527 -0.03345,0.03501 -0.119957,-0.240192 -0.174436,-0.557867 -0.01988,-0.115935 -0.06849,-0.352697 -0.108611,-0.526599 -0.09745,-0.422334 -0.08473,-0.36839 -0.350519,-1.423467 -0.01704,-0.06763 -0.04568,-0.186011 -0.06418,-0.263299 -0.03812,-0.159322 -0.218279,-0.851144 -0.297858,-1.142064 -0.02906,-0.106275 -0.09268,-0.334594 -0.139879,-0.508498 -0.0472,-0.173902 -0.120139,-0.442781 -0.162916,-0.597362 -0.04277,-0.15458 -0.0913,-0.328753 -0.106966,-0.386722 -0.01566,-0.05797 -0.07662,-0.271053 -0.136587,-0.473939 -0.05997,-0.202887 -0.126654,-0.432856 -0.148106,-0.510144 -0.06068,-0.21863 -0.108045,-0.297858 -0.176082,-0.297858 -0.03447,0 -0.09878,-0.01543 -0.143169,-0.03291 -0.07457,-0.02936 -0.219041,-0.06055 -0.677997,-0.148106 -0.09661,-0.01844 -0.2318724,-0.04693 -0.2995047,-0.06418 -0.4226777,-0.107839 -0.4619477,-0.115667 -0.4936869,-0.08392 -0.021283,0.02129 0.00969,0.08489 0.083927,0.172791 0.1350851,0.159968 0.2964748,0.394569 0.4114067,0.595716 0.098782,0.172885 0.4903959,0.957203 0.4903959,0.982438 0,0.017 0.05145,0.137596 0.210641,0.492042 0.218569,0.486654 0.218108,0.485703 0.350517,0.918259 0.04033,0.131739 0.0379,0.15895 -0.03785,0.306086 -0.0457,0.08877 -0.187073,0.26926 -0.312668,0.401532 -0.315757,0.33254 -0.455839,0.517974 -0.455839,0.602299 0,0.0441 0.181835,0.263321 0.47394,0.569386 0.261195,0.273677 0.484127,0.534604 0.495333,0.57926 0.01121,0.04465 0.0058,0.125407 -0.01317,0.179373 -0.03149,0.08964 -0.03645,0.09217 -0.05924,0.02798 -0.01372,-0.03865 -0.04278,-0.118113 -0.06418,-0.176081 -0.0214,-0.05797 -0.239585,-0.303171 -0.483812,-0.544703 C 10.259332,19.353345 10.033398,19.113469 10,19.061695 c -0.082158,-0.127363 -0.051244,-0.178857 0.383431,-0.64344 0.193225,-0.206523 0.380002,-0.435651 0.416342,-0.508499 0.06531,-0.130921 0.06591,-0.134418 -0.0099,-0.373556 -0.04217,-0.133068 -0.09896,-0.28926 -0.125068,-0.347228 -0.02612,-0.05797 -0.07728,-0.176348 -0.115194,-0.263299 C 10.10933,15.916063 9.8478486,15.374745 9.626418,15.010156 9.567742,14.913546 9.5012043,14.79516 9.478312,14.746855 9.45542,14.698555 9.373736,14.580678 9.2956476,14.485202 c -0.130243,-0.15922 -0.1426977,-0.18876 -0.1382322,-0.366975 0.00548,-0.219624 -0.01445,-0.197142 0.4295076,-0.465712 0.2533156,-0.153241 0.3139926,-0.211285 0.450901,-0.422925 0.168363,-0.260262 0.296675,-0.362256 0.50027,-0.398241 0.162203,-0.02867 0.35568,-0.123491 0.401533,-0.197476 0.02862,-0.04618 0.0013,-0.09586 -0.130005,-0.241906 -0.17434,-0.1939 -0.230863,-0.326216 -0.176089,-0.413055 0.03924,-0.06221 0.300899,-0.147351 0.457484,-0.148106 0.06066,-2.95e-4 0.14595,-0.02944 0.190892,-0.06582 l 0.08228,-0.06582 -0.131649,-0.332417 c -0.07465,-0.188612 -0.121477,-0.358142 -0.108612,-0.391659 0.01776,-0.04626 0.351307,-0.233678 0.416343,-0.233678 0.04833,0 0.475838,-0.225023 0.559513,-0.294567 0.116959,-0.09722 0.106821,-0.129175 -0.07405,-0.223805 C 11.465921,9.9301471 11.317082,9.8437994 11.217741,9.7490973 11.083056,9.620703 11.088963,9.6129994 11.469521,9.4627592 12.113652,9.208462 12.860075,8.7757553 12.860075,8.6564025 c 0,-0.061241 -0.204307,-0.1440483 -0.808003,-0.329125 -0.106273,-0.032582 -0.209422,-0.069676 -0.228742,-0.08228 -0.01932,-0.012604 -0.07851,-0.033388 -0.131649,-0.046077 -0.05314,-0.012689 -0.09709,-0.042625 -0.09709,-0.067471 0,-0.024842 0.245202,-0.2870256 0.544702,-0.5825509 0.299499,-0.2955245 0.544702,-0.5577039 0.544702,-0.582551 0,-0.057158 -0.383577,-0.1119526 -1.005477,-0.1431694 -0.253299,-0.012714 -0.48017,-0.035537 -0.505211,-0.051015 -0.05598,-0.034598 0.0316,-0.2117395 0.378494,-0.7619243 0.131778,-0.2090005 0.277324,-0.4539503 0.324187,-0.5447016 0.08374,-0.1621523 0.07989,-0.2486571 -0.0082,-0.1793733 -0.02462,0.019354 -0.09638,0.045608 -0.159626,0.057597 -0.09307,0.017639 -0.550375,0.1815304 -0.939651,0.3373526 -0.03865,0.015469 -0.113804,0.045741 -0.167854,0.067471 C 10.465115,5.8030776 10.443564,5.8001386 10.3966,5.7123806 10.309692,5.5500313 10.259601,5.2213791 10.236945,4.6706917 10.223996,4.3559541 10.202027,4.0921356 10.187577,4.0832036 10.155258,4.063229 9.6874197,4.3031011 9.4602099,4.4567605 9.2611628,4.5913744 8.906767,4.8948104 8.7246165,5.0870346 8.6525229,5.1631143 8.5701415,5.22611 8.5403065,5.2252674 8.5104731,5.2244148 8.3118278,5.0170144 8.0992786,4.7644924 7.5885719,4.1577338 7.3439372,3.954267 7.3439372,4.1375092 c 0,0.038907 -0.013826,0.098098 -0.031268,0.13165 -0.017441,0.033553 -0.050866,0.1724739 -0.074052,0.3077319 C 7.1558837,5.0595199 6.9516868,5.615981 6.8420217,5.6580668 6.8170508,5.6676484 6.6694941,5.623484 6.5145424,5.5609744 6.071253,5.3821445 5.3757696,5.2416948 5.3757696,5.3305875 c 0,0.022375 0.03915,0.1269467 0.087218,0.2320325 0.1597518,0.3492545 0.242755,0.6539436 0.2451984,0.9100304 l 0.00164,0.2451983 -0.15798,0.024684 c -0.2543967,0.039856 -1.0184173,0.1349815 -1.2473804,0.154689 -0.2698172,0.023219 -0.57926,0.089129 -0.57926,0.1234215 0,0.014607 0.065853,0.087185 0.1464605,0.161271 0.5099602,0.4687169 0.8376234,0.9063467 0.8376234,1.1190249 0,0.09507 -0.1494946,0.2127716 -0.8442054,0.6730604 -0.3785041,0.250782 -0.5611584,0.3984693 -0.5611584,0.4509018 0,0.022664 0.091307,0.059964 0.2024116,0.083926 0.111105,0.023959 0.3329947,0.083838 0.4936878,0.1332955 0.2642209,0.081317 0.3145377,0.1140707 0.5348275,0.3274794 0.1339755,0.1297908 0.2435529,0.2588658 0.2435529,0.2879848 0,0.02912 -0.1217777,0.161512 -0.2715284,0.294567 -0.3392054,0.301392 -0.7471131,0.739485 -0.7471131,0.803065 0,0.04491 0.1135754,0.09001 0.4920415,0.194183 0.086952,0.02393 0.1985401,0.05593 0.246844,0.07077 0.048306,0.01485 0.1535624,0.04622 0.2353244,0.07076 0.1693436,0.05082 0.2066884,0.122468 0.1530426,0.28963 -0.020176,0.06287 -0.066383,0.208252 -0.1036745,0.324187 -0.189645,0.589535 -0.1854549,0.702629 0.023039,0.674706 0.7352936,-0.09848 0.8193213,-0.105519 0.8524339,-0.07241 0.019531,0.01953 0.044093,0.200117 0.054306,0.401533 0.010211,0.201416 0.031911,0.380699 0.049369,0.398241 0.042517,0.04272 0.4920415,-0.179771 0.4920415,-0.243552 0,-0.02692 -0.044485,-0.124591 -0.098737,-0.217223 -0.2123781,-0.362623 -0.4107841,-0.972107 -0.5298918,-1.625875 -0.06267,-0.34398 -0.09902,-0.79717 -0.075698,-0.936361 0.023858,-0.142386 0.027012,-0.120455 0.1991205,1.007123 0.028017,0.183564 0.065567,0.388205 0.083926,0.455838 0.2535659,0.933976 0.5425926,1.366104 1.0844665,1.62094 0.1665007,0.07829 0.338629,0.158663 0.3817849,0.179372 0.096675,0.0464 0.1266805,0.135919 0.095447,0.278111 -0.020995,0.09559 -0.060047,0.123782 -0.3274795,0.245199 -0.1670585,0.07584 -0.3349091,0.153425 -0.3735573,0.171145 -0.038645,0.01772 -0.1722605,0.07338 -0.2978575,0.123421 -0.2427079,0.09669 -0.2953965,0.118158 -0.4986244,0.20735 -0.070783,0.03106 -0.2302523,0.08691 -0.3538095,0.125067 -0.3042071,0.09396 -0.3638326,0.17083 -0.4607749,0.580905 -0.00914,0.03865 -0.078462,0.251731 -0.1546889,0.47394 -0.076224,0.22221 -0.182555,0.54688 -0.2353245,0.720782 -0.052771,0.173905 -0.109109,0.354875 -0.1250671,0.40318 -0.025584,0.07744 -0.2315295,0.753255 -0.2649455,0.868889 -0.028154,0.09744 -0.1199181,0.0307 -0.3340623,-0.245198 -0.2882883,-0.371433 -0.4010776,-0.537548 -0.61711,-0.905093 -0.2627641,-0.447057 -0.5464456,-1.027316 -0.694453,-1.42182 -0.072493,-0.193226 -0.162149,-0.42895 -0.1991205,-0.523308 -0.03698,-0.09436 -0.06747,-0.198186 -0.06747,-0.230388 -8e-7,-0.03221 -0.013167,-0.07379 -0.029621,-0.09215 C 2.3355277,14.698706 2.2692524,14.4321 2.1092052,13.71011 2.072238,13.54335 2.0179671,13.138194 1.9693269,12.668429 1.8861057,11.864705 1.9447511,10.873709 2.1338891,9.9333996 2.1630349,9.7884808 2.202181,9.5990716 2.2194611,9.5121194 2.2611501,9.3024004 2.4198858,8.7664109 2.4959268,8.5806964 2.5117493,8.5420515 2.5686709,8.3915535 2.6209939,8.246634 2.8881663,7.5066761 3.5692529,6.336716 4.1464882,5.628445 4.4567752,5.2477234 5.2216855,4.4838916 5.5897005,4.1868781 6.0773127,3.7933423 6.2220746,3.6934385 6.8041723,3.3426726 7.3852858,2.9924984 7.6201485,2.8802159 8.5205586,2.5215058 8.7094959,2.4462366 9.2875965,2.2707172 9.5046424,2.2236477 9.5626105,2.2110759 9.6725528,2.1859432 9.74984,2.1676966 10.052935,2.0961439 10.476798,2.029453 10.980768,1.973513 c 0.179804,-0.019958 0.376179,-0.03211 0.584196,-0.03785 z M 7.1793743,7.9800431 c 0.167452,-0.00463 0.3289564,0.022459 0.4476099,0.083927 0.1671411,0.086588 0.3488728,0.3082564 0.3488728,0.4245718 0,0.039248 0.017951,0.082134 0.039495,0.095446 0.050649,0.0313 0.023733,0.3151545 -0.042786,0.454192 l -0.049369,0.10532 -0.6681239,0.023039 C 6.8881544,9.1791685 6.5091263,9.2008656 6.4125134,9.2142623 6.3159004,9.2276758 6.2245938,9.2257152 6.2101019,9.2109683 6.1956098,9.1962235 6.1849927,9.0730193 6.1854174,8.9361514 6.1866837,8.5277743 6.3468863,8.2647862 6.7004978,8.0902996 6.8395354,8.0216942 7.0119231,7.9846814 7.1793743,7.9800431 Z M 9.180454,8.177518 c 0.1663685,-0.00454 0.34663,0.011066 0.4936878,0.049369 0.2405088,0.062645 0.5566662,0.2065906 0.6187542,0.2814015 0.0672,0.080963 0.02669,0.4414871 -0.05596,0.5019155 -0.03361,0.024585 -0.06983,0.043668 -0.08063,0.041141 C 9.9830344,9.0106126 9.6682178,8.9814499 9.1360224,8.9591895 L 8.4860002,8.9328595 8.4744815,8.730448 C 8.4614845,8.4808084 8.5350224,8.3600283 8.765757,8.2515715 8.8613382,8.2066422 9.0140863,8.1820606 9.180454,8.177518 Z m 5.680697,4.035072 c 0.06376,-0.01462 0.207832,0.10547 0.343935,0.304441 0.19087,0.279037 0.276182,0.834753 0.182665,1.193078 -0.09507,0.364285 -0.37382,0.705239 -0.709264,0.86889 -0.184286,0.08991 -0.592648,0.147256 -0.799774,0.111903 -0.682595,-0.116506 -1.123962,-0.639409 -1.123962,-1.329665 0,-0.177228 0.03559,-0.216404 0.227096,-0.241907 1.005822,-0.13395 1.250564,-0.19697 1.523849,-0.393304 0.161364,-0.115929 0.320896,-0.340642 0.320896,-0.452547 0,-0.03712 0.01331,-0.05602 0.03456,-0.0609 z m 1.48929,0.0033 c 0.05027,-0.0054 0.09618,0.02832 0.126714,0.102028 0.08303,0.200473 0.31097,0.353563 0.651667,0.436092 0.07729,0.01872 0.455041,0.04378 0.840914,0.05595 l 0.702681,0.02304 0.0362,0.131649 c 0.05303,0.189394 0.01027,0.614376 -0.08063,0.80142 -0.106614,0.219367 -0.335437,0.442167 -0.584197,0.567741 -0.175027,0.08835 -0.26583,0.108553 -0.511789,0.12013 -0.253647,0.01194 -0.337872,0.0012 -0.557867,-0.07569 -0.428198,-0.149646 -0.712664,-0.389414 -0.893574,-0.753696 -0.07997,-0.161016 -0.09381,-0.236783 -0.09381,-0.478876 0,-0.318202 0.06857,-0.58787 0.204059,-0.796483 0.05372,-0.08272 0.10936,-0.127926 0.159624,-0.133297 z m -9.3241093,2.725183 c 0.062997,-0.03894 0.041022,0.08184 -0.051015,0.283047 -0.048305,0.105609 -0.088864,0.197951 -0.088864,0.205703 0,0.0077 -0.04453,0.114856 -0.1003834,0.23697 -0.2604707,0.56946 -0.2591639,0.564227 -0.5315365,1.311562 -0.035211,0.09661 -0.1183822,0.318139 -0.1859555,0.492043 -0.067577,0.173902 -0.1339232,0.379328 -0.1464605,0.457484 -0.039412,0.245723 -0.02924,0.258928 0.7059725,0.951169 0.2060253,0.193982 0.2074627,0.307167 0.00823,0.52331 -0.2157091,0.233983 -0.2827456,0.202981 -0.1135478,-0.0527 C 6.6585795,19.144435 6.6239899,19.0709 6.2018717,18.663433 6.0016929,18.470202 5.8210404,18.268616 5.8003388,18.214178 c -0.020701,-0.05445 -0.028361,-0.166032 -0.016456,-0.246843 0.01746,-0.118479 0.18796,-0.597106 0.3653289,-1.025224 0.016013,-0.03865 0.056832,-0.148585 0.09051,-0.245198 0.033677,-0.09661 0.074383,-0.190635 0.09051,-0.208995 0.016127,-0.01835 0.029622,-0.05445 0.029622,-0.07899 0,-0.02454 0.038761,-0.128036 0.085573,-0.230386 0.046815,-0.10235 0.1167165,-0.268111 0.1563336,-0.368621 0.1182937,-0.300114 0.3846514,-0.844219 0.4245718,-0.868889 z m 2.1952628,0.138231 c 0.00649,-0.0032 0.017087,0.004 0.031268,0.0181 0.1379599,0.137943 0.2773699,1.228605 0.3258339,2.557301 0.018283,0.501147 0.013531,0.676352 -0.016455,0.676352 -0.022261,0 -0.039491,-0.02546 -0.039491,-0.05596 0,-0.05533 -0.039347,-0.535407 -0.1069656,-1.332957 -0.019665,-0.231871 -0.05084,-0.619128 -0.070758,-0.860662 -0.01991,-0.241531 -0.05025,-0.510409 -0.067472,-0.59736 -0.057665,-0.291199 -0.075334,-0.39513 -0.055955,-0.404857 z m -1.9731042,0.569387 c 0.039373,0.02434 0.015522,0.930678 -0.046077,1.769047 -0.048697,0.662693 -0.078835,0.892209 -0.1135484,0.857369 -0.090421,-0.09075 0.067164,-2.683559 0.1596254,-2.626416 z"></path></svg>