<?xml version="1.0" encoding="UTF-8" standalone="no"?>
<svg
   viewBox="0 0 67 24"
   id="icon"
   version="1.1"
   width="67"
   height="24"
   xmlns="http://www.w3.org/2000/svg"
   xmlns:svg="http://www.w3.org/2000/svg">
  <defs
     id="defs968" />
  <path
     fill="none"
     d="M 0,0 H 67 V 24 H 0 Z"
     id="path961"
     style="stroke-width:1.67083" />
  <path
     id="path340"
     style="fill:#000000;stroke-width:0.120724"
     d="m 58.201243,13.014577 h 3.33199 v 8.136827 h 5.203217 v 2.655943 h -8.547279 v -10.79277 z m -25.448709,5.396385 c 0,-1.762572 0.494965,-3.138836 1.472835,-4.116706 0.977869,-0.977869 2.354133,-1.472834 4.104634,-1.472834 1.798786,0 3.175049,0.482893 4.152919,1.448692 0.97787,0.965798 1.460763,2.317906 1.460763,4.056336 0,1.267608 -0.217297,2.293763 -0.639834,3.102621 -0.410464,0.796787 -1.05031,1.448691 -1.835013,1.883299 -0.808858,0.446679 -1.81087,0.67606 -3.006038,0.67606 -1.219322,0 -2.221335,-0.193155 -3.018109,-0.579477 -0.820929,-0.410464 -1.496989,-1.050298 -1.943668,-1.835013 -0.494964,-0.845072 -0.748489,-1.89537 -0.748489,-3.162978 z m 3.331991,0.01157 c 0,1.086525 0.205238,1.871227 0.603619,2.354133 0.398393,0.470821 0.953727,0.712261 1.65393,0.712261 0.712274,0 1.267608,-0.229368 1.666001,-0.70019 0.398381,-0.470834 0.591548,-1.303835 0.591548,-2.511073 0,-1.014084 -0.205238,-1.762573 -0.615703,-2.221323 -0.410452,-0.470834 -0.965786,-0.700203 -1.665989,-0.700203 -0.615703,-0.02417 -1.207251,0.24144 -1.617716,0.712275 -0.410452,0.470821 -0.61569,1.255524 -0.61569,2.35412 z m 11.275662,-0.01157 c 0,-1.762572 0.494964,-3.138836 1.472834,-4.116706 0.97787,-0.977869 2.354133,-1.472834 4.104634,-1.472834 1.7988,0 3.187121,0.482893 4.15292,1.448692 0.965798,0.965798 1.460763,2.317906 1.460763,4.056336 0,1.267608 -0.217298,2.293763 -0.639834,3.102621 -0.410464,0.796787 -1.050311,1.448691 -1.835013,1.883299 -0.808858,0.446679 -1.810871,0.67606 -3.006038,0.67606 -1.219323,0 -2.221335,-0.193155 -3.018109,-0.579477 -0.820929,-0.410464 -1.49699,-1.050298 -1.943668,-1.835013 -0.494965,-0.845072 -0.748489,-1.89537 -0.748489,-3.162978 z m 3.33199,0.01157 c 0,1.086525 0.205239,1.871227 0.60362,2.354133 0.398393,0.470821 0.953727,0.712261 1.65393,0.712261 0.712274,0 1.267608,-0.229368 1.666001,-0.70019 0.398381,-0.470834 0.591548,-1.303835 0.591548,-2.511073 0,-1.014084 -0.205239,-1.762573 -0.615703,-2.221323 -0.410452,-0.470834 -0.965786,-0.700203 -1.665989,-0.700203 -0.615691,-0.02417 -1.219323,0.24144 -1.617703,0.712275 -0.410465,0.470821 -0.615704,1.255524 -0.615704,2.35412 z m -34.635833,0.965798 2.921538,0.881287 c -0.15694,0.736417 -0.482905,1.43662 -0.929584,2.05231 -0.410465,0.543263 -0.953727,0.965799 -1.569418,1.243466 -0.627762,0.277667 -1.424548,0.422536 -2.390347,0.422536 -1.171024,0 -2.13681,-0.169012 -2.87324,-0.507049 C 10.466805,23.142857 9.8269713,22.539237 9.2837089,21.682094 8.7404464,20.82495 8.4748508,19.726354 8.4748508,18.386318 c 0,-1.786728 0.4708344,-3.162978 1.4245487,-4.116706 0.9537275,-0.953727 2.2937635,-1.43662 4.0321935,-1.43662 1.364191,0 2.426561,0.277667 3.211276,0.82093 0.772631,0.555334 1.352108,1.400406 1.73843,2.535203 l -2.945681,0.651918 c -0.07238,-0.253524 -0.181083,-0.507049 -0.325953,-0.724346 -0.181083,-0.253524 -0.410464,-0.446679 -0.688131,-0.591548 -0.277667,-0.144869 -0.591548,-0.205239 -0.905429,-0.205239 -0.76056,0 -1.340036,0.30181 -1.73843,0.917513 -0.301809,0.446679 -0.45875,1.158954 -0.45875,2.124752 0,1.195167 0.181083,2.016097 0.54325,2.462775 0.362179,0.446679 0.869215,0.663976 1.533203,0.663976 0.639847,0 1.122739,-0.181083 1.448692,-0.531178 0.325965,-0.37425 0.567405,-0.893357 0.712274,-1.569418 z m 6.820934,-6.374254 h 3.33199 v 3.778681 h 3.645884 v -3.778681 h 3.356133 v 10.792769 h -3.356133 v -4.370229 h -3.645884 v 4.370229 h -3.33199 z M 34.45475,7.4124776 37.6298,7.2072517 c 0.07238,0.5191069 0.205226,0.9054289 0.422536,1.1830958 0.350095,0.4346074 0.833,0.6519047 1.472834,0.6519047 0.470821,0 0.845072,-0.1086294 1.098596,-0.3380237 0.241453,-0.1810832 0.386322,-0.4708215 0.386322,-0.7726311 0,-0.2897383 -0.132798,-0.5674052 -0.362179,-0.7485013 C 40.406456,6.9657988 39.839051,6.7484887 38.945693,6.5553341 37.48493,6.2293792 36.434632,5.7947718 35.818929,5.2394393 35.203238,4.7203234 34.853143,3.9597598 34.877286,3.1509069 c 0,-0.5553325 0.169012,-1.1106651 0.482893,-1.5694178 C 35.722358,1.0623745 36.217322,0.65191111 36.80887,0.42253476 37.448716,0.14486914 38.342074,0 39.464813,0 c 1.37625,0 2.426561,0.25352034 3.150907,0.77263624 0.724346,0.50704196 1.158953,1.32796746 1.291751,2.45070526 l -3.138836,0.181087 C 40.684174,2.9215306 40.515111,2.5714291 40.237444,2.3420527 39.959777,2.1126764 39.597611,2.0040252 39.126776,2.0040252 c -0.386309,0 -0.676047,0.084512 -0.869214,0.241449 -0.181084,0.1448691 -0.30181,0.3621728 -0.289739,0.6036218 0,0.1810858 0.09654,0.3501002 0.241453,0.4587527 0.156941,0.1448691 0.531191,0.2776656 1.122739,0.3983907 1.460763,0.3138836 2.49899,0.6277659 3.138836,0.9537221 0.639833,0.3259562 1.098583,0.7243469 1.37625,1.1951723 0.289738,0.4828979 0.434607,1.038224 0.422536,1.6056292 0,0.6760603 -0.193154,1.3521205 -0.579476,1.9195257 -0.398381,0.5915479 -0.953715,1.0502983 -1.605632,1.3279653 -0.688132,0.301809 -1.557347,0.45875 -2.595573,0.45875 -1.835014,0 -3.102622,-0.350095 -3.814896,-1.06237 C 34.961786,9.3923601 34.53925,8.4990025 34.45475,7.4124776 Z M 0.76055975,10.985921 V 0.19315842 H 6.3259565 c 1.0261553,0 1.822942,0.0845124 2.3662045,0.26559427 0.5311782,0.16901313 1.0020126,0.51911461 1.315894,0.98993991 0.350095,0.5191147 0.519119,1.1227365 0.507035,1.7505036 0.03625,1.0623745 -0.507035,2.0764597 -1.4366199,2.607647 C 8.7163037,6.0120755 8.3179103,6.1569447 7.9074456,6.2293792 8.2092553,6.3138916 8.5110649,6.4587504 8.7766605,6.6277751 8.9818992,6.796787 9.1509111,6.9899416 9.3078516,7.1951803 9.4889348,7.4004062 9.6458753,7.6297877 9.778673,7.8712277 l 1.617716,3.1267643 H 7.605636 L 5.818921,7.6780732 C 5.5895395,7.2555371 5.3963849,6.9778702 5.2152889,6.8450724 4.9738489,6.6760606 4.6841106,6.5915482 4.3943723,6.5915482 H 4.1046341 V 10.973849 H 0.76055975 Z M 4.1046341,4.5633829 H 5.5171113 C 5.818921,4.5392402 6.1086592,4.4909419 6.3983975,4.4185125 6.6156948,4.3822984 6.8088622,4.2615707 6.94166,4.0804849 7.2676123,3.6458762 7.219314,3.0301818 6.8209464,2.6559363 6.6036363,2.4748505 6.1811002,2.3782707 5.577481,2.3782707 H 4.1046469 Z M 0,20.233402 3.1750496,20.028164 c 0.072377,0.519119 0.2052388,0.905441 0.4225361,1.183108 0.3380365,0.434608 0.8330007,0.663976 1.472834,0.663976 0.4708344,0 0.8450721,-0.108629 1.0985963,-0.338023 0.2414529,-0.193168 0.386322,-0.470822 0.386322,-0.772644 0,-0.289739 -0.1327978,-0.567405 -0.3621793,-0.748489 C 5.9517188,19.798795 5.3843136,19.581485 4.4788718,19.38833 3.0181091,19.062378 1.9678111,18.627758 1.3521076,18.072437 0.73641703,17.553317 0.38632198,16.792757 0.41046469,15.983899 c 0,-0.555334 0.16901185,-1.110667 0.48289283,-1.569417 0.36217928,-0.51912 0.85714348,-0.929572 1.44869138,-1.158954 0.6398462,-0.277666 1.5332037,-0.422536 2.6559427,-0.422536 1.3762632,0 2.4265612,0.253525 3.1509069,0.772631 0.7243457,0.51912 1.1468817,1.327978 1.2796795,2.450717 L 6.2897424,16.237423 C 6.2052815,15.754518 6.0362182,15.404423 5.7585513,15.175041 5.4929558,14.945673 5.118718,14.837018 4.6478837,14.849089 c -0.3863091,0 -0.6760474,0.08446 -0.8692148,0.253524 -0.1931546,0.144869 -0.3018097,0.362167 -0.2897383,0.603619 0,0.181084 0.096545,0.350108 0.2414528,0.45875 0.1569405,0.14487 0.5311912,0.277667 1.1227391,0.398394 1.4607627,0.313881 2.4989893,0.627762 3.1388355,0.953727 0.6398333,0.325952 1.0985963,0.724346 1.3762504,1.195167 0.2897382,0.482893 0.4346202,1.038227 0.4346202,1.593561 0,0.67606 -0.2052388,1.340049 -0.5794894,1.907454 C 8.8249587,22.804833 8.2696249,23.263583 7.6177074,23.54125 6.9295758,23.84306 6.060361,24 5.0221343,24 3.187121,24 1.9195128,23.649905 1.2072385,22.937631 0.49496419,22.213285 0.09658371,21.319915 0,20.233402 Z" />
  <path
     d="m 54.528683,12.391764 c 3.354565,-2.5279911 4.38905,-6.8133124 2.310425,-9.571539 -2.078511,-2.75823428 -6.482897,-2.94489807 -9.83759,-0.4169336 -3.354578,2.5279683 -4.389063,6.8132819 -2.310425,9.5714906 2.078511,2.758311 6.482897,2.944948 9.83759,0.416982 z"
     stroke="white"
     stroke-width="0.482898"
     stroke-miterlimit="10"
     id="path342"
     style="fill:#ffffff;fill-opacity:1;stroke:#000000;stroke-opacity:1" />
  <path
     d="m 47.372259,6.6041081 1.207238,-0.8450644 1.484918,2.1126725 c 0.253525,0.3380366 0.446679,0.700203 0.591548,1.0985963 0.08446,0.3018097 0.06042,0.627762 -0.06042,0.9175003 -0.156953,0.3621792 -0.410464,0.6639892 -0.748501,0.8812992 -0.398381,0.277667 -0.736417,0.434607 -1.026155,0.482893 -0.277667,0.04834 -0.567406,0 -0.833001,-0.120714 -0.289738,-0.144869 -0.54325,-0.350095 -0.736417,-0.615691 l 1.038227,-0.9657981 c 0.08446,0.1327978 0.193167,0.2535242 0.313893,0.3501079 0.08446,0.060293 0.181084,0.096545 0.289739,0.096545 0.08446,0 0.169012,-0.036253 0.229368,-0.084461 0.120714,-0.072377 0.205239,-0.2173101 0.193168,-0.3621792 -0.03625,-0.2052257 -0.120715,-0.4104645 -0.253525,-0.567405 z m 3.621728,1.3400491 1.098596,-0.8692148 c 0.120714,0.1448692 0.277667,0.2535242 0.446679,0.313881 0.241453,0.072377 0.494977,0.024168 0.700203,-0.1327978 0.144869,-0.096545 0.265596,-0.2293815 0.313881,-0.3983933 C 53.625726,6.640335 53.505006,6.3988822 53.28775,6.3264476 53.2515,6.3143636 53.21537,6.3023046 53.179121,6.3023046 53.034252,6.2902206 52.780728,6.3505896 52.406477,6.5075369 51.790787,6.7610611 51.307894,6.857632 50.945714,6.8214179 50.595619,6.7851656 50.269654,6.6041081 50.0765,6.3023049 49.93163,6.0970725 49.859189,5.8556236 49.847118,5.6141759 c 0,-0.277667 0.07238,-0.5553326 0.229382,-0.7847089 0.229381,-0.3259562 0.507035,-0.6036231 0.845072,-0.8209268 0.507035,-0.3501002 0.953727,-0.5191147 1.340036,-0.5191147 0.386322,0 0.748488,0.1810871 1.086525,0.5553326 L 52.261608,4.9019015 C 52.044311,4.6242346 51.633846,4.5638727 51.356179,4.7811751 l -0.03625,0.036214 c -0.120713,0.072428 -0.205238,0.1810858 -0.253524,0.3138835 -0.03625,0.096584 -0.01157,0.2052311 0.04834,0.2897383 0.04834,0.060357 0.120714,0.1086551 0.205239,0.1086551 0.09654,0.012084 0.265583,-0.036214 0.507035,-0.1448704 0.60362,-0.2535204 1.062383,-0.3983895 1.376264,-0.4466801 0.265595,-0.048285 0.543262,-0.024143 0.796773,0.084512 0.229382,0.096584 0.422537,0.2655942 0.555334,0.4708253 0.169012,0.241449 0.265596,0.5311872 0.277667,0.8329982 0.01157,0.3138835 -0.07238,0.6156931 -0.241453,0.8812887 -0.217297,0.3259523 -0.494964,0.6036192 -0.820916,0.8209165 -0.663989,0.458763 -1.207252,0.6519176 -1.641859,0.5794766 -0.470821,-0.072377 -0.857143,-0.313881 -1.13481,-0.6639761 z"
     fill="white"
     id="path344"
     style="fill:#000000;stroke-width:0.120724" />
</svg>
