<?xml version="1.0" standalone="no"?>
<!DOCTYPE svg PUBLIC "-//W3C//DTD SVG 20010904//EN"
 "http://www.w3.org/TR/2001/REC-SVG-20010904/DTD/svg10.dtd">
<svg version="1.0" xmlns="http://www.w3.org/2000/svg"
 width="415.000000pt" height="250.000000pt" viewBox="0 0 415.000000 250.000000"
 preserveAspectRatio="xMidYMid meet">

<g transform="translate(0.000000,250.000000) scale(0.100000,-0.100000)"
fill="#ffffff" stroke="none">
<path d="M1823 2426 c-143 -27 -301 -94 -426 -178 -214 -146 -390 -408 -441
-658 l-13 -65 -124 -1 c-154 -1 -233 -19 -359 -81 -80 -39 -110 -61 -186 -137
-76 -77 -98 -106 -138 -186 -61 -125 -79 -212 -73 -360 8 -201 70 -343 212
-485 97 -97 216 -164 348 -195 84 -20 109 -20 1414 -18 1502 4 1365 -4 1558
87 238 113 400 309 472 571 21 79 28 264 14 356 -59 363 -332 645 -699 721
-58 12 -112 14 -218 11 l-141 -5 -28 56 c-123 253 -398 470 -690 547 -83 22
-127 27 -255 30 -102 2 -179 -1 -227 -10z m302 -167 c202 -24 380 -109 527
-248 99 -94 159 -178 217 -304 51 -111 63 -118 169 -91 91 22 240 25 322 5
239 -58 438 -235 515 -458 133 -383 -86 -788 -491 -905 l-79 -23 -1295 0
c-1228 0 -1298 1 -1354 18 -107 33 -177 76 -257 156 -115 115 -164 234 -162
396 3 228 150 428 378 515 87 33 235 38 332 12 123 -33 156 -11 166 110 36
415 384 768 807 818 96 11 107 11 205 -1z"/>
</g>
</svg>
